<svg data-v-fde0c5aa="" xmlns="http://www.w3.org/2000/svg" viewBox="0 0 300 300" class="iconLeftSlogan"><!----><defs data-v-fde0c5aa=""><!----></defs><rect data-v-fde0c5aa="" fill="transparent" x="0" y="0" width="300px" height="300px" class="logo-background-square"></rect><defs data-v-fde0c5aa=""><!----></defs><g data-v-fde0c5aa="" id="33d3a696-a4d5-454c-8e97-078d2962e63b" fill="#000000" transform="matrix(2.014755668244435,0,0,2.014755668244435,91.46569272258522,128.89869637725394)"><path d="M10.64 10.64C10.42 0.77 10.42 0.76 10.42 0.76L8.86 0.76C6.89 6.52 6.52 7.64 6.08 9.14C5.47 7.45 5.10 6.50 3.05 0.76L1.41 0.76C1.41 0.76 1.41 0.80 1.16 10.64L2.06 10.64C2.18 5.21 2.20 3.75 2.20 1.67C2.93 3.77 3.22 4.55 5.39 10.64L6.33 10.64C8.53 4.26 8.85 3.32 9.34 1.65C9.34 3.63 9.34 4.96 9.46 10.64ZM14.20 10.64L14.20 3.58L13.13 3.58L13.13 10.64ZM14.31 1.40C14.31 0.87 14.11 0.70 13.68 0.70C13.23 0.70 13.01 0.88 13.01 1.40C13.01 1.95 13.22 2.10 13.65 2.10C14.10 2.10 14.31 1.92 14.31 1.40ZM21.06 10.64L22.09 10.64L22.09 6.48C22.09 5.64 22.06 5.25 22.01 4.87C21.85 3.78 21.03 3.40 20.05 3.40C19.40 3.40 18.24 3.68 17.60 4.61C17.60 4.48 17.54 3.82 17.49 3.58L16.45 3.58C16.55 4.24 16.59 5.43 16.59 6.26L16.59 10.64L17.64 10.64L17.64 6.40C17.64 5.59 17.70 5.32 17.95 4.94C18.33 4.40 19.03 4.12 19.66 4.12C20.37 4.12 20.78 4.40 20.93 4.94C21.03 5.31 21.06 5.82 21.06 6.68ZM28.95 9.72C28.98 9.94 29.04 10.43 29.08 10.64L30.09 10.64C30.02 10.18 29.96 9.52 29.96 8.99L29.96 0.20L28.92 0.20L28.92 4.07C28.42 3.63 27.78 3.43 26.95 3.43C25.69 3.43 23.94 4.16 23.94 7.21C23.94 9.58 25.03 10.79 26.73 10.79C27.75 10.79 28.38 10.39 28.95 9.72ZM28.94 7.04C28.94 8.65 28.77 9.14 28.35 9.59C28.06 9.91 27.64 10.14 26.94 10.14C25.80 10.14 25.03 9.24 25.03 7.20C25.03 4.98 25.96 4.07 27.06 4.07C27.65 4.07 28.20 4.20 28.57 4.61C28.88 4.96 28.94 5.52 28.94 7.04ZM33.33 10.64L33.33 3.58L32.27 3.58L32.27 10.64ZM33.45 1.40C33.45 0.87 33.25 0.70 32.82 0.70C32.37 0.70 32.14 0.88 32.14 1.40C32.14 1.95 32.35 2.10 32.79 2.10C33.24 2.10 33.45 1.92 33.45 1.40ZM48.45 10.64C48.23 0.77 48.23 0.76 48.23 0.76L46.68 0.76C44.70 6.52 44.34 7.64 43.89 9.14C43.29 7.45 42.91 6.50 40.87 0.76L39.23 0.76C39.23 0.76 39.23 0.80 38.98 10.64L39.87 10.64C40.00 5.21 40.01 3.75 40.01 1.67C40.74 3.77 41.03 4.55 43.20 10.64L44.14 10.64C46.34 4.26 46.66 3.32 47.15 1.65C47.15 3.63 47.15 4.96 47.28 10.64ZM54.88 10.64L55.90 10.64C55.73 10.11 55.72 9.56 55.72 9.09L55.72 5.80C55.72 4.79 55.52 4.33 55.16 3.95C54.73 3.51 54.03 3.40 53.33 3.40C52.64 3.40 51.73 3.56 50.99 3.91L50.99 4.72C51.86 4.24 52.61 4.14 53.20 4.14C53.72 4.14 54.12 4.28 54.36 4.59C54.60 4.90 54.68 5.39 54.68 5.91L54.68 6.54C54.43 6.52 54.07 6.51 53.80 6.51C51.35 6.51 50.32 7.28 50.32 8.65C50.32 9.90 51.14 10.81 52.57 10.81C53.69 10.81 54.35 10.32 54.71 9.66C54.73 9.93 54.81 10.40 54.88 10.64ZM54.68 7.11L54.68 8.11C54.68 8.57 54.61 9.03 54.35 9.34C53.98 9.79 53.44 10.09 52.78 10.09C51.88 10.09 51.38 9.52 51.38 8.62C51.38 7.78 51.98 7.10 54.00 7.10C54.22 7.10 54.49 7.10 54.68 7.11ZM57.32 9.53L57.32 10.44C57.93 10.68 58.62 10.82 59.22 10.82C60.91 10.82 61.87 10.07 61.87 8.76C61.87 7.78 61.40 7.29 60.19 6.75L59.44 6.43C58.81 6.15 58.51 5.81 58.51 5.29C58.51 4.49 59.15 4.09 59.88 4.09C60.52 4.09 61.00 4.23 61.56 4.51L61.56 3.64C61.08 3.49 60.54 3.40 59.91 3.40C58.39 3.40 57.50 4.16 57.50 5.38C57.50 6.24 57.95 6.89 58.95 7.32L59.56 7.57C60.35 7.91 60.79 8.23 60.79 8.88C60.79 9.63 60.37 10.11 59.22 10.11C58.59 10.11 57.93 9.87 57.32 9.53ZM66.58 10.58L66.58 9.88C66.35 9.97 65.97 10.01 65.69 10.01C65.31 10.01 65.00 9.87 64.89 9.62C64.81 9.42 64.75 9.11 64.75 8.51L64.75 4.21L66.33 4.21L66.33 3.58L64.75 3.58L64.75 1.76L63.80 1.76C63.73 2.79 63.70 3.58 63.70 3.58L62.62 3.58L62.62 4.21L63.70 4.21L63.70 8.53C63.70 9.21 63.73 9.65 63.94 10.02C64.19 10.50 64.68 10.74 65.49 10.74C65.84 10.74 66.29 10.67 66.58 10.58ZM73.15 7.10L73.15 6.82C73.15 6.06 73.08 5.33 72.81 4.76C72.42 3.93 71.83 3.40 70.42 3.40C68.49 3.40 67.38 4.72 67.38 7.08C67.38 9.67 68.47 10.82 70.55 10.82C71.67 10.82 72.38 10.56 72.87 10.29L72.87 9.49C72.30 9.80 71.69 10.11 70.71 10.11C69.27 10.11 68.47 9.09 68.46 7.10ZM72.02 6.51L68.49 6.51C68.54 4.61 69.48 4.02 70.38 4.02C71.76 4.02 72.02 5.00 72.02 6.51ZM75.92 10.64L75.92 6.40C75.92 5.78 76.03 5.26 76.30 4.90C76.61 4.48 77.03 4.34 77.49 4.34C77.77 4.34 78.12 4.38 78.40 4.51L78.40 3.54C78.16 3.47 77.92 3.44 77.64 3.44C77 3.44 76.23 3.86 75.88 4.62C75.88 4.41 75.84 3.92 75.77 3.58L74.73 3.58C74.83 4.23 74.87 5.04 74.87 5.73L74.87 10.64ZM79.10 9.53L79.10 10.44C79.72 10.68 80.40 10.82 81.00 10.82C82.70 10.82 83.65 10.07 83.65 8.76C83.65 7.78 83.19 7.29 81.97 6.75L81.23 6.43C80.60 6.15 80.29 5.81 80.29 5.29C80.29 4.49 80.93 4.09 81.66 4.09C82.31 4.09 82.78 4.23 83.34 4.51L83.34 3.64C82.87 3.49 82.32 3.40 81.69 3.40C80.18 3.40 79.28 4.16 79.28 5.38C79.28 6.24 79.73 6.89 80.74 7.32L81.34 7.57C82.14 7.91 82.57 8.23 82.57 8.88C82.57 9.63 82.15 10.11 81.00 10.11C80.37 10.11 79.72 9.87 79.10 9.53Z"></path></g><defs data-v-fde0c5aa=""><linearGradient data-v-fde0c5aa="" gradientTransform="rotate(25)" id="f566bc66-622e-4679-bad2-b513569c699c" x1="0%" y1="0%" x2="100%" y2="0%"><stop data-v-fde0c5aa="" offset="0%" stop-color="#5106FF" stop-opacity="1"></stop><stop data-v-fde0c5aa="" offset="100%" stop-color="#61CBF2" stop-opacity="1"></stop></linearGradient></defs><g data-v-fde0c5aa="" id="4d433f6d-05db-4c01-9abc-bff895d0fc09" stroke="none" fill="url(#f566bc66-622e-4679-bad2-b513569c699c)" transform="matrix(0.7205502873602201,0,0,0.7205502873602201,38.5491594734086,126.91286584524566)"><path d="M36.867 15.551a5.317 5.317 0 0 1 1.682.721.995.995 0 0 0 .998.054.999.999 0 0 0 .546-.837c.063-1.16-.258-2.029-.599-2.95l-.035-.097a1.001 1.001 0 0 0-1.877.692l.037.098c.065.179.127.344.182.501a7.37 7.37 0 0 0-.475-.129.999.999 0 1 0-.459 1.946z"></path><path d="M3.524 42.327l.312.471c.646 1.013.89 1.777.763 2.404-.088.438-.379.881-.687 1.351-.252.384-.513.781-.712 1.231-.872 1.906-.417 4.358 1.14 6.108 1.264 1.39 3.185 2.307 5.403 2.58.563.071 1.121.101 1.667.101.868 0 1.685-.083 2.464-.184.118.679.217 1.408.289 2.229.101 1.12.14 2.247.116 3.352a1.97 1.97 0 0 0 .569 1.428c.375.382.896.602 1.431.602h17.47a2.002 2.002 0 0 0 1.974-2.363 93.389 93.389 0 0 1-.332-1.884c.949.944 2.261 2.081 3.95 2.081.121 0 .244-.006.369-.018 1.667-.174 3.32-1.169 4.532-2.728 1.017-1.293 1.643-2.804 2.248-4.368 1.909-4.957 3.479-10.116 4.999-15.105l.035-.116c.396-1.32 1.964-2.446 3.285-3.395a.994.994 0 0 0 .407-.674l.568-4.027c.219-.216.412-.461.569-.734l1.825-3.161a3.478 3.478 0 0 0 0-3.467l-1.825-3.161a3.477 3.477 0 0 0-3.003-1.733h-3.649c-.19 0-.376.021-.56.051-.387-.782-.841-1.53-1.285-2.26-.265-.437-.529-.872-.776-1.311-.214-.379-.39-.756-.548-1.131 1.522-1.195 2.539-2.696 2.875-4.281.464-2.198-.435-4.461-2.191-5.508-1.104-.65-2.375-.748-3.497-.835-1.083-.083-2.106-.163-2.794-.701-.265-.207-.504-.506-.757-.823a8.068 8.068 0 0 0-.807-.91C37.788-.03 34.861.01 33.952.141c-1.724.257-3.043.905-4.327 1.624-1.293-.051-3.139.111-5.048 1.094-1.879.955-3.41 2.498-4.424 4.458-.989 1.895-1.017 3.321-1.04 4.579-.021 1.105-.038 1.979-.752 3.07-.579.894-1.557 1.507-2.591 2.157-.534.336-1.087.683-1.607 1.082-2.504 1.909-4.08 5.049-4.113 8.188-.021 1.221-1.252 2.966-2.461 4.155-.46.452-.946.871-1.462 1.315-.775.668-1.578 1.36-2.288 2.18-1.476 1.731-2.102 3.733-1.712 5.511.257 1.075.837 1.939 1.397 2.774zm8.645-4.737c1.071-.732 1.991-1.518 2.786-2.403 1.715-1.915 2.769-4.33 2.963-6.709.797-.409 1.659-.587 2.643-.774.371-.071.748-.142 1.129-.228.159-.036.307-.111.43-.216a20.308 20.308 0 0 0 8.427 3.762c.255.05.442.28.467.576.183 2.104.821 3.87 1.897 5.248.234.301.479.572.753.873.47.517 1.003 1.102 1.724 2.15 1.068 1.547 1.543 2.27 1.572 3.199.026.972-.415 1.82-.85 2.505-1.271-1.738-2.374-3.508-3.256-5.302l-.16-.33c-.37-.764-.836-1.715-1.5-2.641-.6-1.579-1.534-2.957-2.718-3.984-2.02-1.756-4.778-2.446-7.19-1.803-2.634.692-4.696 3.066-4.902 5.642-.14 1.614.395 3.351 1.503 4.888.964 1.348 2.219 2.401 3.433 3.34 1.067.821 2.342 1.709 3.767 2.277a100.378 100.378 0 0 0 5.148 6.508c-5.206-.186-10.503-1.28-15.504-2.479a90.581 90.581 0 0 0-.201-.628c-.412-1.281-.838-2.607-1.247-4.322-.967-4.038-1.378-6.473-1.113-9.147zm.701-3.121c.57-1.447 1.504-2.89 2.621-4.072a10.05 10.05 0 0 1-2.026 3.455c-.19.211-.388.417-.596.617zm17.843-19.74a1 1 0 0 0-.719-.644c-.621-.143-1.147-.527-1.402-1.018-.244-.483-.216-1.087.079-1.483.254-.352.785-.514 1.151-.352.312.14.57.503.673.95a.998.998 0 0 0 1.66.505c.639-.601 1.269-1.111 1.936-1.652.473-.383.944-.766 1.431-1.222 1.738 1.045 3.836 1.35 5.81.948.135.668.212 1.414.219 2.243.002.345-.015.694-.03 1.045-.064 1.404-.138 2.996.874 4.407l.065.091.036.051a6.265 6.265 0 0 1-.148.125c-.998.838-1.646 1.874-2.272 2.875-.871 1.393-1.623 2.595-3.165 3.016-2.541.688-5.03-1.424-7.23-3.285-.395-.333-.776-.656-1.143-.95a1 1 0 0 0-1.252 1.561c.354.284.723.595 1.103.917.825.697 1.72 1.448 2.677 2.106a19.824 19.824 0 0 0-2.151 3.58 18.306 18.306 0 0 1-5.607-2.902c1.366-2.015 2.417-4.261 3.04-6.604 1.649-.383 3.04-1.883 4.207-3.354a.996.996 0 0 0 .16-.952zm13.723 11.423c.051.471.195.934.439 1.356l1.572 2.722a32.94 32.94 0 0 0-1.269 1.001.992.992 0 0 0-.359.735c-.015.444.007.897.046 1.357-.012-.019-.03-.034-.041-.054l-1.82-3.162a1.48 1.48 0 0 1 0-1.47l1.432-2.487zm-1.648 7.591l.306.531a3.502 3.502 0 0 0 2.244 1.643c.07.267.134.527.219.811.171.589.018 1.24-.416 1.749a48.848 48.848 0 0 0-6.59 10.155c-.404-.457-.775-.923-1.152-1.386.024-.035.047-.064.071-.1.576-.857 1.539-2.292 1.489-4.14-.029-.893-.291-1.63-.716-2.401.784-2.211 2-4.248 3.561-5.897.297-.312.629-.634.984-.966zm-21.264 9.063c.081.132.16.248.24.373-.829-.683-1.63-1.434-2.253-2.304-.83-1.151-1.233-2.411-1.134-3.555.141-1.762 1.578-3.391 3.42-3.874 1.265-.335 2.658-.161 3.906.432a4.98 4.98 0 0 0-2.27.285c-1.856.697-3.201 2.354-3.347 4.119-.14 1.699.648 3.24 1.438 4.523zM16.281 62.01a32.857 32.857 0 0 0-.124-3.568 26.857 26.857 0 0 0-.779-4.547c5.308 1.241 10.906 2.3 16.462 2.3l.176-.001c.323.357.655.704.983 1.056.24 1.85.542 3.593.752 4.75l-17.47.011zm37.017-27.282c-1.45 1.047-3.134 2.346-3.687 4.191l-.033.111c-1.51 4.956-3.069 10.08-4.952 14.969-.568 1.47-1.107 2.775-1.957 3.856-.883 1.134-2.036 1.852-3.158 1.969-1.022.099-2.042-.81-3.052-1.838a98.937 98.937 0 0 1-10.107-11.979 46.687 46.687 0 0 0-1.294-1.705c-.627-.798-1.22-1.552-1.83-2.544-.619-1.008-1.24-2.188-1.146-3.312.08-.979.945-1.994 2.056-2.411 1.339-.504 2.614.137 3.161.41 1.959.983 2.867 2.859 3.598 4.366l.165.339c1.686 3.433 4.054 6.782 7.039 9.955a1.001 1.001 0 0 0 1.643-.281c1.734-3.924 4.066-7.646 6.927-11.056.865-1.017 1.167-2.361.806-3.607-.435-1.442-.645-2.601-.661-3.685.318-.256.615-.483.909-.705.573.4 1.26.63 1.98.63h3.649c.093 0 .184-.011.276-.018l-.33 2.344zm.055-13.581c.522 0 1.01.281 1.271.733l1.825 3.161a1.472 1.472 0 0 1 0 1.467l-1.825 3.161a1.471 1.471 0 0 1-1.271.733h-3.649c-.522 0-1.01-.281-1.271-.734l-1.824-3.161a1.467 1.467 0 0 1 0-1.467l1.824-3.161c.129-.225.315-.406.532-.533l.015-.003c.007-.003.012-.01.019-.013.213-.117.454-.185.704-.185h3.649zm-6.005-1.069a3.435 3.435 0 0 0-.648.802l-1.101 1.909a3.525 3.525 0 0 0-2.507 1.691l-1.821 3.163a3.489 3.489 0 0 0 .002 3.466l.496.862c-.516.469-.996.923-1.414 1.36a18.6 18.6 0 0 0-3.453 5.216 20.546 20.546 0 0 0-1.757-2.177c-.237-.26-.451-.494-.655-.756-.847-1.085-1.331-2.456-1.481-4.188-.099-1.191-.932-2.143-2.077-2.369l-.05-.011a17.8 17.8 0 0 1 1.919-3.059c.975.466 2.005.765 3.089.765.504 0 1.02-.065 1.546-.207 2.299-.627 3.381-2.358 4.337-3.885.568-.91 1.106-1.769 1.853-2.396.317-.259.907-.741.956-1.562.021-.607-.292-1.04-.557-1.406a2.71 2.71 0 0 1-.449-1.08c.452-.2.87-.404 1.255-.613.153.336.321.672.51 1.007.257.457.533.912.81 1.367.436.718.854 1.406 1.199 2.102zM5.355 35.345c.609-.703 1.322-1.317 2.077-1.968a31.394 31.394 0 0 0 1.559-1.404c.706-.695 3.016-3.147 3.059-5.552.027-2.543 1.302-5.083 3.329-6.628.448-.344.938-.651 1.455-.977 1.173-.736 2.386-1.498 3.203-2.759 1.026-1.569 1.052-2.868 1.075-4.124.021-1.138.042-2.213.816-3.695.821-1.59 2.051-2.833 3.56-3.6a8.084 8.084 0 0 1 4.298-.862c.194.015.396-.03.567-.127 1.473-.835 2.529-1.327 3.889-1.53.906-.13 2.938.018 3.755.781.207.193.402.438.608.696.3.375.639.799 1.088 1.15 1.163.911 2.603 1.021 3.872 1.12.993.077 1.932.149 2.633.562 1.012.603 1.539 2.022 1.253 3.374-.263 1.24-1.155 2.447-2.515 3.397-.417.292-.886.564-1.416.831.016-.348.031-.695.029-1.04-.009-1.054-.113-2.015-.308-2.872.2-.097.404-.185.597-.299a1 1 0 0 0-1.017-1.722c-1.893 1.118-4.414 1.118-6.27.001-.734-.44-1.683-.341-2.361.251-.454.396-.907.764-1.36 1.132-.34.276-.687.557-1.036.853a3.034 3.034 0 0 0-1.162-.932c-1.236-.542-2.776-.107-3.572.997-.734.983-.836 2.418-.247 3.58a3.942 3.942 0 0 0 1.338 1.458c-.735.813-1.716 1.691-2.61 1.691-.466 0-.87.322-.975.776a19.775 19.775 0 0 1-3.407 7.346c-.005.006-.005.014-.009.02l-.014.013a6.358 6.358 0 0 1-.228.313c-.241.05-.48.095-.718.141-1.194.227-2.429.46-3.617 1.185-2.962 1.791-5.556 5.502-6.166 8.825-.673 3.666-.257 6.496.931 11.453.427 1.789.885 3.213 1.288 4.47.301.936.582 1.82.827 2.765-1.087.13-2.276.2-3.459.052-1.748-.216-3.229-.905-4.165-1.933-1.015-1.142-1.347-2.761-.803-3.95.138-.312.344-.625.562-.956.379-.579.81-1.235.975-2.052.309-1.534-.444-2.946-1.042-3.882l-.333-.503c-.483-.72-.94-1.4-1.109-2.106-.355-1.622.78-3.175 1.279-3.762z"></path><path d="M36.025 21.898l1.272.687a1.002 1.002 0 0 0 1.356-.404 1 1 0 0 0-.404-1.355l-1.272-.687a1 1 0 0 0-.951 1.759zM16.178 50.097a28.94 28.94 0 0 0 9.055 2.422 1 1 0 0 0 .198-1.99 26.957 26.957 0 0 1-8.43-2.254.998.998 0 0 0-1.322.5.998.998 0 0 0 .5 1.322zM31.361 58.213a1 1 0 0 0-1 1v1.021a1 1 0 1 0 2 0v-1.021a1 1 0 0 0-1-1z"></path></g><defs data-v-fde0c5aa=""><!----></defs><g data-v-fde0c5aa="" id="0aa7908e-b74d-4904-85a0-61b3b4fd7273" fill="#000000" transform="matrix(0.47394183821124103,0,0,0.47394183821124103,93.11085412863117,158.9732041422853)"><path d="M2.16 3.78L2.16 13.02L1.46 13.02L1.46 3.78L2.16 3.78ZM19.17 3.78L19.17 13.02L18.30 13.02L13.40 5.77L12.71 4.54L12.70 4.54L12.74 5.70L12.74 13.02L12.07 13.02L12.07 3.78L12.95 3.78L17.84 11.02L18.54 12.26L18.51 11.10L18.51 3.78L19.17 3.78ZM35.38 3.78L35.38 4.42L32.00 4.42L32.00 13.02L31.30 13.02L31.30 4.42L27.93 4.42L27.93 3.78L35.38 3.78ZM44.84 12.38L50.68 12.38L50.68 13.02L44.14 13.02L44.14 3.78L50.46 3.78L50.46 4.42L44.84 4.42L44.84 7.99L49.28 7.99L49.28 8.65L44.84 8.65L44.84 12.38ZM63.01 8.50L66.81 8.50L66.81 13.02L66.25 13.02L66.22 11.41L66.22 11.41Q65.84 12.25 65.04 12.71L65.04 12.71L65.04 12.71Q64.23 13.16 63.04 13.16L63.04 13.16L63.04 13.16Q61.78 13.16 60.84 12.58L60.84 12.58L60.84 12.58Q59.89 12.00 59.38 10.92L59.38 10.92L59.38 10.92Q58.87 9.84 58.87 8.40L58.87 8.40L58.87 8.40Q58.87 6.96 59.39 5.88L59.39 5.88L59.39 5.88Q59.92 4.80 60.87 4.22L60.87 4.22L60.87 4.22Q61.82 3.64 63.08 3.64L63.08 3.64L63.08 3.64Q64.50 3.64 65.39 4.20L65.39 4.20L65.39 4.20Q66.29 4.76 66.74 5.91L66.74 5.91L66.09 6.24L66.09 6.24Q65.77 5.28 65.01 4.78L65.01 4.78L65.01 4.78Q64.25 4.28 63.08 4.28L63.08 4.28L63.08 4.28Q62.05 4.28 61.26 4.78L61.26 4.78L61.26 4.78Q60.48 5.28 60.05 6.21L60.05 6.21L60.05 6.21Q59.61 7.14 59.61 8.40L59.61 8.40L59.61 8.40Q59.61 10.32 60.53 11.42L60.53 11.42L60.53 11.42Q61.45 12.52 63.07 12.52L63.07 12.52L63.07 12.52Q64.08 12.52 64.78 12.12L64.78 12.12L64.78 12.12Q65.48 11.72 65.81 11.07L65.81 11.07L65.81 11.07Q66.15 10.42 66.15 9.67L66.15 9.67L66.15 9.16L63.01 9.16L63.01 8.50ZM83.23 13.02L82.40 13.02L79.76 9.02L79.72 9.02L76.99 9.02L76.99 13.02L76.29 13.02L76.29 3.78L79.72 3.78L79.72 3.78Q81.10 3.78 81.92 4.48L81.92 4.48L81.92 4.48Q82.74 5.18 82.74 6.40L82.74 6.40L82.74 6.40Q82.74 7.41 82.15 8.07L82.15 8.07L82.15 8.07Q81.56 8.74 80.54 8.93L80.54 8.93L83.23 13.02ZM76.99 4.42L76.99 8.36L79.70 8.36L79.70 8.36Q80.82 8.36 81.42 7.85L81.42 7.85L81.42 7.85Q82.01 7.35 82.01 6.40L82.01 6.40L82.01 6.40Q82.01 5.45 81.42 4.93L81.42 4.93L81.42 4.93Q80.82 4.42 79.70 4.42L79.70 4.42L76.99 4.42ZM98.53 13.02L97.37 10.12L92.95 10.12L91.80 13.02L91.06 13.02L94.75 3.78L95.58 3.78L99.27 13.02L98.53 13.02ZM93.21 9.48L97.12 9.48L95.51 5.45L95.17 4.47L95.16 4.47L94.82 5.42L93.21 9.48ZM112.97 3.78L112.97 4.42L109.59 4.42L109.59 13.02L108.89 13.02L108.89 4.42L105.52 4.42L105.52 3.78L112.97 3.78ZM122.43 3.78L122.43 13.02L121.73 13.02L121.73 3.78L122.43 3.78ZM139.16 3.78L135.60 13.02L134.78 13.02L131.21 3.78L131.96 3.78L134.69 10.93L135.18 12.36L135.67 10.93L138.42 3.78L139.16 3.78ZM148.64 12.38L154.48 12.38L154.48 13.02L147.94 13.02L147.94 3.78L154.25 3.78L154.25 4.42L148.64 4.42L148.64 7.99L153.08 7.99L153.08 8.65L148.64 8.65L148.64 12.38ZM181.30 3.78L182.00 3.78L182.00 13.02L181.30 13.02L181.30 8.65L175.59 8.65L175.59 13.02L174.89 13.02L174.89 3.78L175.59 3.78L175.59 7.99L181.30 7.99L181.30 3.78ZM192.61 12.38L198.45 12.38L198.45 13.02L191.91 13.02L191.91 3.78L198.23 3.78L198.23 4.42L192.61 4.42L192.61 7.99L197.05 7.99L197.05 8.65L192.61 8.65L192.61 12.38ZM213.77 13.02L212.60 10.12L208.18 10.12L207.03 13.02L206.29 13.02L209.99 3.78L210.81 3.78L214.51 13.02L213.77 13.02ZM208.45 9.48L212.35 9.48L210.74 5.45L210.41 4.47L210.39 4.47L210.06 5.42L208.45 9.48ZM223.93 12.38L229.47 12.38L229.47 13.02L223.23 13.02L223.23 3.78L223.93 3.78L223.93 12.38ZM242.59 3.78L242.59 4.42L239.22 4.42L239.22 13.02L238.52 13.02L238.52 4.42L235.14 4.42L235.14 3.78L242.59 3.78ZM257.77 3.78L258.47 3.78L258.47 13.02L257.77 13.02L257.77 8.65L252.06 8.65L252.06 13.02L251.36 13.02L251.36 3.78L252.06 3.78L252.06 7.99L257.77 7.99L257.77 3.78ZM287.07 10.68L287.07 10.68Q286.68 11.86 285.71 12.51L285.71 12.51L285.71 12.51Q284.73 13.16 283.37 13.16L283.37 13.16L283.37 13.16Q282.11 13.16 281.16 12.58L281.16 12.58L281.16 12.58Q280.21 12.00 279.69 10.92L279.69 10.92L279.69 10.92Q279.17 9.84 279.17 8.40L279.17 8.40L279.17 8.40Q279.17 6.96 279.69 5.88L279.69 5.88L279.69 5.88Q280.21 4.80 281.16 4.22L281.16 4.22L281.16 4.22Q282.11 3.64 283.36 3.64L283.36 3.64L283.36 3.64Q286.13 3.64 286.94 5.92L286.94 5.92L286.26 6.24L286.26 6.24Q285.94 5.26 285.23 4.77L285.23 4.77L285.23 4.77Q284.52 4.28 283.40 4.28L283.40 4.28L283.40 4.28Q282.37 4.28 281.58 4.78L281.58 4.78L281.58 4.78Q280.78 5.28 280.35 6.21L280.35 6.21L280.35 6.21Q279.92 7.14 279.92 8.40L279.92 8.40L279.92 8.40Q279.92 9.66 280.34 10.59L280.34 10.59L280.34 10.59Q280.77 11.52 281.55 12.02L281.55 12.02L281.55 12.02Q282.32 12.52 283.37 12.52L283.37 12.52L283.37 12.52Q284.49 12.52 285.28 11.97L285.28 11.97L285.28 11.97Q286.06 11.42 286.37 10.42L286.37 10.42L287.07 10.68ZM299.80 3.64L299.80 3.64Q301.10 3.64 302.06 4.22L302.06 4.22L302.06 4.22Q303.02 4.80 303.53 5.87L303.53 5.87L303.53 5.87Q304.05 6.94 304.05 8.40L304.05 8.40L304.05 8.40Q304.05 9.86 303.53 10.93L303.53 10.93L303.53 10.93Q303.02 12.00 302.06 12.58L302.06 12.58L302.06 12.58Q301.10 13.16 299.80 13.16L299.80 13.16L299.80 13.16Q298.49 13.16 297.54 12.58L297.54 12.58L297.54 12.58Q296.58 12.00 296.06 10.93L296.06 10.93L296.06 10.93Q295.54 9.86 295.54 8.40L295.54 8.40L295.54 8.40Q295.54 6.94 296.06 5.87L296.06 5.87L296.06 5.87Q296.58 4.80 297.54 4.22L297.54 4.22L297.54 4.22Q298.49 3.64 299.80 3.64L299.80 3.64ZM299.80 4.28L299.80 4.28Q298.72 4.28 297.93 4.78L297.93 4.78L297.93 4.78Q297.14 5.28 296.71 6.21L296.71 6.21L296.71 6.21Q296.28 7.14 296.28 8.40L296.28 8.40L296.28 8.40Q296.28 9.66 296.71 10.59L296.71 10.59L296.71 10.59Q297.14 11.52 297.93 12.02L297.93 12.02L297.93 12.02Q298.72 12.52 299.80 12.52L299.80 12.52L299.80 12.52Q300.87 12.52 301.67 12.02L301.67 12.02L301.67 12.02Q302.47 11.52 302.90 10.59L302.90 10.59L302.90 10.59Q303.32 9.66 303.32 8.40L303.32 8.40L303.32 8.40Q303.32 7.14 302.90 6.21L302.90 6.21L302.90 6.21Q302.47 5.28 301.67 4.78L301.67 4.78L301.67 4.78Q300.87 4.28 299.80 4.28L299.80 4.28ZM319.42 13.02L318.26 10.12L313.84 10.12L312.69 13.02L311.95 13.02L315.64 3.78L316.47 3.78L320.17 13.02L319.42 13.02ZM314.10 9.48L318.01 9.48L316.40 5.45L316.06 4.47L316.05 4.47L315.71 5.42L314.10 9.48ZM335.96 10.68L335.96 10.68Q335.57 11.86 334.59 12.51L334.59 12.51L334.59 12.51Q333.62 13.16 332.26 13.16L332.26 13.16L332.26 13.16Q331.00 13.16 330.05 12.58L330.05 12.58L330.05 12.58Q329.10 12.00 328.58 10.92L328.58 10.92L328.58 10.92Q328.06 9.84 328.06 8.40L328.06 8.40L328.06 8.40Q328.06 6.96 328.58 5.88L328.58 5.88L328.58 5.88Q329.10 4.80 330.05 4.22L330.05 4.22L330.05 4.22Q331.00 3.64 332.25 3.64L332.25 3.64L332.25 3.64Q335.02 3.64 335.83 5.92L335.83 5.92L335.15 6.24L335.15 6.24Q334.82 5.26 334.12 4.77L334.12 4.77L334.12 4.77Q333.41 4.28 332.29 4.28L332.29 4.28L332.29 4.28Q331.25 4.28 330.46 4.78L330.46 4.78L330.46 4.78Q329.67 5.28 329.24 6.21L329.24 6.21L329.24 6.21Q328.80 7.14 328.80 8.40L328.80 8.40L328.80 8.40Q328.80 9.66 329.23 10.59L329.23 10.59L329.23 10.59Q329.66 11.52 330.44 12.02L330.44 12.02L330.44 12.02Q331.21 12.52 332.26 12.52L332.26 12.52L332.26 12.52Q333.38 12.52 334.17 11.97L334.17 11.97L334.17 11.97Q334.95 11.42 335.26 10.42L335.26 10.42L335.96 10.68ZM351.43 3.78L352.13 3.78L352.13 13.02L351.43 13.02L351.43 8.65L345.72 8.65L345.72 13.02L345.02 13.02L345.02 3.78L345.72 3.78L345.72 7.99L351.43 7.99L351.43 3.78Z"></path></g></svg>